<svg width="26" height="26" viewBox="0 0 26 26" fill="none" xmlns="http://www.w3.org/2000/svg">
<path d="M7.6648 0.200195C3.54851 0.200195 0.200195 3.5516 0.200195 7.66889V18.3356C0.200195 22.4519 3.55161 25.8002 7.6689 25.8002H18.3356C22.4519 25.8002 25.8002 22.4488 25.8002 18.3314V7.66479C25.8002 3.5485 22.4488 0.200195 18.3314 0.200195H7.6648ZM20.4669 4.46686C21.0557 4.46686 21.5335 4.94473 21.5335 5.53353C21.5335 6.12233 21.0557 6.60019 20.4669 6.60019C19.8781 6.60019 19.4002 6.12233 19.4002 5.53353C19.4002 4.94473 19.8781 4.46686 20.4669 4.46686ZM13.0002 6.60019C16.5298 6.60019 19.4002 9.4706 19.4002 13.0002C19.4002 16.5298 16.5298 19.4002 13.0002 19.4002C9.4706 19.4002 6.6002 16.5298 6.6002 13.0002C6.6002 9.4706 9.4706 6.60019 13.0002 6.60019ZM13.0002 8.73349C11.8686 8.73349 10.7834 9.18309 9.9832 9.9832C9.18309 10.7834 8.7335 11.8686 8.7335 13.0002C8.7335 14.1318 9.18309 15.217 9.9832 16.0172C10.7834 16.8173 11.8686 17.2669 13.0002 17.2669C14.1318 17.2669 15.217 16.8173 16.0172 16.0172C16.8173 15.217 17.2669 14.1318 17.2669 13.0002C17.2669 11.8686 16.8173 10.7834 16.0172 9.9832C15.217 9.18309 14.1318 8.73349 13.0002 8.73349Z" fill="#35291E"/>
</svg>
