<svg width="28" height="28" viewBox="0 0 28 28" fill="none" xmlns="http://www.w3.org/2000/svg">
<path d="M13.9998 0.666504C10.4636 0.666504 7.07222 2.07126 4.57174 4.57175C2.07125 7.07223 0.666504 10.4636 0.666504 13.9998C0.666504 17.5361 2.07125 20.9274 4.57174 23.4279C7.07222 25.9284 10.4636 27.3332 13.9998 27.3332C17.536 27.3332 20.9274 25.9284 23.4279 23.4279C25.9284 20.9274 27.3331 17.5361 27.3331 13.9998C27.3331 10.4636 25.9284 7.07223 23.4279 4.57175C20.9274 2.07126 17.536 0.666504 13.9998 0.666504Z" fill="#35291E"/>
<path d="M20.6331 8.0002L18.1358 20.7508C18.1358 20.7508 18.0285 21.3335 17.3058 21.3335C16.9218 21.3335 16.7238 21.1508 16.7238 21.1508L11.3145 16.6622L8.66784 15.3282L5.27116 14.4248C5.27116 14.4248 4.6665 14.2502 4.6665 13.7502C4.6665 13.3335 5.2885 13.1348 5.2885 13.1348L19.4991 7.4895C19.4991 7.4895 19.9331 7.33283 20.2498 7.3335C20.4445 7.3335 20.6665 7.41683 20.6665 7.66683C20.6665 7.8335 20.6331 8.0002 20.6331 8.0002Z" fill="white"/>
<path d="M13.3334 18.3366L11.0494 20.586C11.0494 20.586 10.9501 20.6626 10.8174 20.666C10.7714 20.6673 10.7221 20.66 10.6714 20.6373L11.3141 16.6606L13.3334 18.3366Z" fill="#35291E"/>
<path d="M17.9311 10.1306C17.8185 9.98389 17.6105 9.95729 17.4638 10.0686L8.6665 15.3333C8.6665 15.3333 10.0705 19.2613 10.2845 19.9413C10.4991 20.6219 10.6711 20.6379 10.6711 20.6379L11.3138 16.6613L17.8685 10.5973C18.0151 10.4859 18.0425 10.2773 17.9311 10.1306Z" fill="#35291E"/>
</svg>
