<svg width="26" height="26" viewBox="0 0 26 26" fill="none" xmlns="http://www.w3.org/2000/svg">
<path d="M13.0002 0.200195C5.9314 0.200195 0.200195 5.9314 0.200195 13.0002C0.200195 15.4015 0.874685 17.6403 2.0252 19.5606L0.314775 25.8002L6.6877 24.1273C8.5515 25.1869 10.7031 25.8002 13.0002 25.8002C20.069 25.8002 25.8002 20.069 25.8002 13.0002C25.8002 5.9314 20.069 0.200195 13.0002 0.200195ZM8.6189 7.0294C8.8269 7.0294 9.0407 7.02809 9.2252 7.03769C9.4535 7.04299 9.7019 7.0597 9.9398 7.5856C10.2224 8.2107 10.8379 9.7788 10.9169 9.9377C10.9958 10.0966 11.0517 10.2839 10.9419 10.4919C10.8373 10.7052 10.783 10.8343 10.6294 11.0231C10.4704 11.2066 10.2963 11.4344 10.1523 11.5731C9.99329 11.732 9.8292 11.9063 10.0127 12.2231C10.1962 12.5399 10.8333 13.5785 11.7752 14.4169C12.9859 15.4985 14.0073 15.8308 14.3252 15.9898C14.6431 16.1487 14.8271 16.1239 15.0106 15.9106C15.1994 15.7026 15.8035 14.9889 16.0169 14.671C16.2249 14.3532 16.4372 14.4082 16.7252 14.5127C17.0175 14.6172 18.5761 15.385 18.8939 15.5439C19.2118 15.7029 19.4202 15.7815 19.5002 15.9106C19.5823 16.0439 19.5824 16.6787 19.3189 17.4189C19.0555 18.1581 17.7617 18.873 17.1814 18.9231C16.5958 18.9775 16.0493 19.1863 13.3752 18.1335C10.1496 16.8631 8.1154 13.5594 7.9564 13.346C7.7975 13.138 6.66478 11.6284 6.66478 10.071C6.66478 8.5084 7.4841 7.7431 7.771 7.4252C8.0633 7.1073 8.4056 7.0294 8.6189 7.0294Z" fill="#35291E"/>
</svg>
