<svg width="34" height="48" viewBox="0 0 34 48" fill="none" xmlns="http://www.w3.org/2000/svg">
<path d="M16.8063 0C12.349 0 8.07424 1.87654 4.92245 5.21678C1.77067 8.55701 0 13.0873 0 17.8112C0 27.6496 16.8063 48 16.8063 48C16.8063 48 33.6125 27.6496 33.6125 17.8112C33.6125 13.0873 31.8419 8.55701 28.6901 5.21678C25.5383 1.87654 21.2636 0 16.8063 0ZM16.8063 25.5472C14.6995 25.5472 12.679 24.6602 11.1892 23.0814C9.69951 21.5026 8.86259 19.3613 8.86259 17.1286C8.86486 14.8974 9.70279 12.7584 11.1923 11.1816C12.6818 9.60472 14.701 8.71898 16.8063 8.71899C18.9116 8.71898 20.9308 9.60472 22.4203 11.1816C23.9098 12.7584 24.7477 14.8974 24.75 17.1286C24.75 19.3613 23.913 21.5026 22.4233 23.0814C20.9336 24.6602 18.9131 25.5472 16.8063 25.5472Z" fill="#35291E"/>
</svg>
