<svg width="108" height="36" viewBox="0 0 108 36" fill="none" xmlns="http://www.w3.org/2000/svg">
<path d="M30.8229 25.1455H29.7278C29.6966 25.1452 29.6657 25.1513 29.6369 25.1633C29.6081 25.1753 29.5819 25.193 29.5599 25.2154C29.5379 25.2379 29.5205 25.2645 29.5087 25.2939C29.4969 25.3232 29.491 25.3546 29.4912 25.3863V35.5753C29.493 35.6349 29.5174 35.6915 29.5592 35.7333C29.601 35.7752 29.6571 35.7989 29.7157 35.7997H30.8088C30.8689 35.8011 30.9271 35.7783 30.9708 35.7363C31.0145 35.6943 31.0402 35.6364 31.0423 35.5753V25.3863C31.0442 25.3249 31.0222 25.2652 30.9812 25.2201C30.9401 25.175 30.8832 25.1482 30.8229 25.1455Z" fill="white"/>
<path d="M65.567 25.146H64.4729C64.4418 25.1457 64.4109 25.1518 64.3821 25.1638C64.3532 25.1758 64.327 25.1935 64.305 25.2159C64.283 25.2383 64.2656 25.265 64.2538 25.2944C64.242 25.3237 64.2361 25.3551 64.2363 25.3868V35.5757C64.2381 35.635 64.2622 35.6914 64.3036 35.7331C64.345 35.7749 64.4005 35.7989 64.4588 35.8002H65.5539C65.6138 35.801 65.6716 35.778 65.715 35.7361C65.7584 35.6942 65.7841 35.6366 65.7864 35.5757V25.3868C65.7878 25.3257 65.7658 25.2664 65.725 25.2214C65.6843 25.1765 65.627 25.1494 65.567 25.146Z" fill="white"/>
<path d="M42.0919 25.146H32.7029C32.6423 25.1487 32.5852 25.1753 32.5436 25.2203C32.502 25.2653 32.4794 25.3251 32.4805 25.3868V26.2589C32.4818 26.3186 32.5056 26.3756 32.547 26.4179C32.5884 26.4603 32.6443 26.4848 32.7029 26.4864H36.6224V35.5757C36.6239 35.6346 36.6475 35.6906 36.6883 35.7324C36.7291 35.7741 36.784 35.7983 36.8418 35.8002H37.9369C37.9974 35.8018 38.0561 35.7792 38.1003 35.7373C38.1446 35.6953 38.1709 35.6373 38.1735 35.5757V26.4864H42.0919C42.1504 26.4843 42.206 26.4597 42.2473 26.4174C42.2886 26.3752 42.3126 26.3185 42.3143 26.2589V25.3868C42.3152 25.3251 42.2925 25.2655 42.251 25.2206C42.2095 25.1757 42.1524 25.1489 42.0919 25.146Z" fill="white"/>
<path d="M44.6825 32.0537L46.7006 26.846L48.7198 32.0537H44.6825ZM51.4766 35.5767L47.53 25.3704C47.5025 25.299 47.453 25.2385 47.389 25.1981C47.325 25.1576 47.2498 25.1393 47.1747 25.146H46.2276C46.1529 25.1391 46.0782 25.1573 46.0147 25.1978C45.9513 25.2384 45.9026 25.299 45.8763 25.3704L41.9276 35.5767C41.8834 35.714 41.984 35.8011 42.1048 35.8011H42.9926C43.1999 35.8011 43.2563 35.7263 43.3328 35.548L44.1642 33.3961H49.2381L50.0695 35.548C50.146 35.7263 50.2054 35.8011 50.4127 35.8011H51.3005C51.3285 35.8046 51.357 35.8008 51.3831 35.7899C51.4093 35.779 51.4322 35.7614 51.4498 35.7389C51.4674 35.7164 51.479 35.6896 51.4835 35.6612C51.488 35.6328 51.4863 35.6038 51.4766 35.5767Z" fill="white"/>
<path d="M71.1184 32.0536L73.1315 26.8459L75.1536 32.0536H71.1184ZM77.9125 35.5766L73.9659 25.3703C73.9384 25.2989 73.8889 25.2384 73.8249 25.198C73.7608 25.1575 73.6857 25.1392 73.6106 25.1459H72.6604C72.5858 25.1398 72.5113 25.1583 72.4478 25.1987C72.3844 25.2392 72.3354 25.2993 72.3081 25.3703L68.3595 35.5766C68.3509 35.6042 68.3493 35.6334 68.3546 35.6618C68.36 35.6901 68.3722 35.7166 68.3902 35.7389C68.4083 35.7612 68.4314 35.7786 68.4577 35.7894C68.484 35.8003 68.5125 35.8043 68.5407 35.801H69.4285C69.6298 35.801 69.6952 35.7262 69.7686 35.5479L70.6001 33.396H75.674L76.5084 35.5479C76.5829 35.7262 76.6423 35.801 76.8456 35.801H77.7334C77.8521 35.801 77.9578 35.714 77.9105 35.5766" fill="white"/>
<path d="M61.3678 34.4624H55.5722V25.3864C55.5723 25.3544 55.5662 25.3228 55.5542 25.2933C55.5421 25.2639 55.5244 25.2371 55.5021 25.2147C55.4798 25.1923 55.4533 25.1746 55.4242 25.1627C55.3951 25.1508 55.364 25.145 55.3326 25.1455H54.2254C54.1648 25.1479 54.1076 25.1746 54.0661 25.2197C54.0247 25.2647 54.0024 25.3246 54.004 25.3864V35.5753C54.0055 35.6345 54.0294 35.6908 54.0706 35.7326C54.1118 35.7744 54.1673 35.7984 54.2254 35.7997H61.3718C61.4322 35.8008 61.4905 35.7781 61.5347 35.7362C61.5788 35.6943 61.6052 35.6366 61.6084 35.5753V34.7043C61.6078 34.6408 61.5826 34.5802 61.5383 34.5357C61.494 34.4911 61.4341 34.4663 61.3718 34.4665" fill="white"/>
<path d="M71.1277 18.27C71.0469 18.2711 70.9668 18.2557 70.892 18.2248C70.8172 18.1938 70.7492 18.1478 70.6922 18.0896C70.6351 18.0314 70.5901 17.9622 70.5598 17.886C70.5295 17.8098 70.5145 17.7282 70.5157 17.646V16.4255C70.5157 16.1755 70.5892 16.0279 71.0542 15.4295L80.6002 2.96665H71.5192C71.3641 2.964 71.216 2.89994 71.1064 2.78803C70.9969 2.67612 70.9345 2.52517 70.9324 2.36719V1.24714C70.93 1.08546 70.9902 0.929325 71.1 0.812519C71.2098 0.695714 71.3605 0.627665 71.5192 0.623103H83.6137C83.6945 0.621997 83.7746 0.63737 83.8494 0.668354C83.9242 0.699337 83.9922 0.745297 84.0492 0.803482C84.1063 0.861667 84.1513 0.930919 84.1816 1.00713C84.2119 1.08334 84.2269 1.16493 84.2257 1.24714V2.21962C84.2257 2.46761 84.1522 2.61723 83.6872 3.21568L73.9429 15.9275H83.6137C83.6944 15.9264 83.7745 15.9418 83.8492 15.9727C83.9239 16.0036 83.9918 16.0494 84.0489 16.1075C84.1059 16.1656 84.1509 16.2347 84.1813 16.3108C84.2117 16.3869 84.2268 16.4684 84.2257 16.5505V17.6705C84.2217 17.8324 84.1553 17.9861 84.0407 18.0983C83.9261 18.2105 83.7727 18.2722 83.6137 18.27H71.1277Z" fill="white"/>
<path d="M87.7527 18.27C87.6719 18.2713 87.5916 18.256 87.5167 18.2251C87.4418 18.1941 87.3737 18.1482 87.3165 18.09C87.2594 18.0318 87.2143 17.9625 87.1839 17.8862C87.1535 17.81 87.1385 17.7283 87.1397 17.646V16.4255C87.1397 16.1755 87.2132 16.0279 87.6752 15.4295L97.2272 2.96665H88.1412C87.9866 2.96224 87.8396 2.89762 87.7304 2.78609C87.6212 2.67455 87.5582 2.52461 87.5544 2.36719V1.24714C87.552 1.08546 87.6122 0.929325 87.722 0.812519C87.8319 0.695714 87.9824 0.627665 88.1412 0.623103H100.236C100.316 0.621997 100.397 0.63737 100.471 0.668354C100.546 0.699337 100.614 0.745297 100.671 0.803482C100.728 0.861667 100.773 0.930919 100.804 1.00713C100.834 1.08334 100.849 1.16493 100.848 1.24714V2.21962C100.848 2.46761 100.774 2.61723 100.309 3.21568L90.5649 15.9275H100.236C100.316 15.9264 100.396 15.9418 100.471 15.9727C100.546 16.0036 100.614 16.0494 100.671 16.1075C100.728 16.1656 100.773 16.2347 100.803 16.3108C100.834 16.3869 100.849 16.4684 100.848 16.5505V17.6705C100.844 17.8324 100.777 17.9861 100.663 18.0983C100.548 18.2105 100.395 18.2722 100.236 18.27H87.7527Z" fill="white"/>
<path d="M104.497 1.24714C104.495 1.08563 104.555 0.92964 104.664 0.812863C104.774 0.696086 104.924 0.627929 105.083 0.623103H106.794C106.875 0.621997 106.955 0.63737 107.03 0.668354C107.105 0.699337 107.173 0.745297 107.23 0.803482C107.287 0.861667 107.332 0.930919 107.362 1.00713C107.392 1.08334 107.407 1.16493 107.406 1.24714V17.6429C107.407 17.7251 107.392 17.8067 107.362 17.8829C107.332 17.9591 107.287 18.0284 107.23 18.0866C107.173 18.1448 107.105 18.1907 107.03 18.2217C106.955 18.2527 106.875 18.2681 106.794 18.2669H105.083C104.924 18.2621 104.774 18.194 104.664 18.0772C104.555 17.9604 104.495 17.8044 104.497 17.6429V1.24714Z" fill="white"/>
<path d="M53.2783 1.22438C53.2807 1.06615 53.3437 0.915096 53.4539 0.803486C53.5641 0.691876 53.7127 0.628539 53.8681 0.626953H55.6054C55.7607 0.628804 55.9091 0.692279 56.0191 0.803861C56.1291 0.915443 56.1919 1.06633 56.1943 1.22438V12.3407C56.2507 13.389 56.6995 14.3754 57.4483 15.0971C58.1972 15.8189 59.1892 16.2212 60.2204 16.2212C61.2516 16.2212 62.2436 15.8189 62.9925 15.0971C63.7413 14.3754 64.1901 13.389 64.2465 12.3407V1.22438C64.2492 1.06588 64.3125 0.91469 64.4231 0.803079C64.5336 0.691468 64.6827 0.628267 64.8384 0.626953H66.5737C66.729 0.628287 66.8776 0.691608 66.9875 0.803329C67.0974 0.91505 67.1599 1.06626 67.1615 1.22438V12.3407C67.0219 14.1174 66.2302 15.7753 64.9439 16.9844C63.6576 18.1935 61.9711 18.8649 60.2204 18.8649C58.4697 18.8649 56.7832 18.1935 55.4969 16.9844C54.2106 15.7753 53.4188 14.1174 53.2793 12.3407V1.22438H53.2783Z" fill="white"/>
<path d="M26.4225 2.10891e-05C30.2906 2.10891e-05 33.426 2.8918 33.426 6.5296V17.6705C33.4242 17.8286 33.3618 17.9797 33.2522 18.0916C33.1426 18.2036 32.9944 18.2676 32.8392 18.27H31.0989C30.9434 18.2676 30.795 18.2037 30.6851 18.0917C30.5752 17.9798 30.5124 17.8288 30.5101 17.6705V11.89H22.4578V17.6705C22.4538 17.8321 22.3875 17.9857 22.2731 18.0979C22.1588 18.2101 22.0056 18.2719 21.8468 18.27H20.1357C19.9801 18.2681 19.8314 18.2044 19.7214 18.0923C19.6113 17.9803 19.5487 17.8289 19.5469 17.6705V6.5296C19.6185 4.73838 20.381 3.04817 21.6689 1.82573C22.9569 0.603295 24.6664 -0.0527192 26.4265 2.10891e-05M30.5141 6.5296C30.4947 6.00282 30.3737 5.48506 30.1578 5.00592C29.9419 4.52677 29.6354 4.09562 29.2559 3.73707C28.8763 3.37852 28.4311 3.09959 27.9456 2.91623C27.4602 2.73287 26.944 2.64865 26.4265 2.6684C25.3989 2.64965 24.4056 3.04482 23.6627 3.76794C22.9198 4.49105 22.4875 5.4836 22.4598 6.5296V9.54538H30.5121V6.5296H30.5141Z" fill="white"/>
<path d="M49.3387 0.623047C49.682 0.623047 49.9014 0.827977 49.9014 1.02268V2.36714C49.9075 2.44518 49.8974 2.52368 49.8716 2.59746C49.8459 2.67124 49.8051 2.73862 49.752 2.79523C49.6989 2.85183 49.6346 2.89638 49.5634 2.92591C49.4921 2.95545 49.4156 2.96931 49.3387 2.9666H44.295V17.6695C44.2931 17.8274 44.2309 17.9783 44.1216 18.0902C44.0122 18.2022 43.8642 18.2663 43.7092 18.269H41.9689C41.8137 18.2663 41.6657 18.2022 41.5561 18.0903C41.4466 17.9784 41.3841 17.8274 41.382 17.6695V2.9666H36.3856C36.2306 2.96369 36.0828 2.89951 35.9735 2.78763C35.8641 2.67575 35.8019 2.52494 35.7998 2.36714V1.22457C35.8019 1.06696 35.8642 0.916386 35.9736 0.804833C36.083 0.69328 36.2308 0.62953 36.3856 0.627144L49.3387 0.623047Z" fill="white"/>
<path d="M0.592677 0.622872C0.437694 0.624994 0.28964 0.688605 0.18004 0.800186C0.0704405 0.911768 0.00794347 1.06251 0.00585938 1.2203V17.6703C0.00767749 17.8284 0.070025 17.9795 0.179625 18.0914C0.289226 18.2034 0.43743 18.2674 0.592677 18.2698H2.30982C2.46845 18.2715 2.62135 18.2095 2.73548 18.0973C2.84961 17.9852 2.91582 17.8318 2.91978 17.6703V5.18395L12.1266 17.5699C12.263 17.7978 12.458 17.9834 12.6906 18.1066C12.9232 18.2298 13.1845 18.2859 13.4461 18.2688H15.0385C15.1941 18.2669 15.3428 18.2031 15.4528 18.0911C15.5628 17.9791 15.6255 17.8277 15.6273 17.6693V1.2244C15.6249 1.06634 15.5621 0.915459 15.4521 0.803876C15.3421 0.692294 15.1937 0.62882 15.0385 0.626969H13.3012C13.146 0.62857 12.9977 0.692027 12.888 0.80372C12.7783 0.915413 12.7159 1.06645 12.7144 1.2244V13.8624L3.26602 1.32584C3.13274 1.09359 2.93737 0.904662 2.70267 0.78111C2.46798 0.657559 2.20362 0.604471 1.94042 0.628001L0.592677 0.622872Z" fill="white"/>
</svg>
