<svg width="108" height="36" viewBox="0 0 108 36" fill="none" xmlns="http://www.w3.org/2000/svg">
<path d="M30.8238 25.2446H29.7287C29.6976 25.2444 29.6667 25.2504 29.6379 25.2624C29.6091 25.2744 29.5829 25.2921 29.5609 25.3146C29.5389 25.337 29.5215 25.3637 29.5097 25.393C29.4979 25.4223 29.4919 25.4538 29.4922 25.4855V35.6744C29.494 35.734 29.5184 35.7907 29.5602 35.8325C29.602 35.8743 29.6581 35.898 29.7167 35.8988H30.8098C30.8698 35.9002 30.9281 35.8774 30.9718 35.8354C31.0155 35.7934 31.0412 35.7355 31.0433 35.6744V25.4855C31.0452 25.424 31.0232 25.3643 30.9821 25.3192C30.9411 25.2741 30.8842 25.2473 30.8238 25.2446Z" fill="#35291E"/>
<path d="M65.568 25.2451H64.4739C64.4427 25.2449 64.4119 25.2509 64.383 25.2629C64.3542 25.2749 64.328 25.2926 64.306 25.3151C64.284 25.3375 64.2666 25.3641 64.2548 25.3935C64.243 25.4228 64.237 25.4543 64.2373 25.486V35.6749C64.2391 35.7342 64.2632 35.7905 64.3046 35.8323C64.346 35.874 64.4015 35.898 64.4598 35.8993H65.5549C65.6147 35.9001 65.6725 35.8772 65.716 35.8352C65.7594 35.7933 65.785 35.7358 65.7874 35.6749V25.486C65.7888 25.4248 65.7668 25.3655 65.726 25.3206C65.6853 25.2756 65.628 25.2486 65.568 25.2451Z" fill="#35291E"/>
<path d="M42.0929 25.2451H32.7039C32.6433 25.2478 32.5861 25.2745 32.5446 25.3195C32.503 25.3644 32.4804 25.4242 32.4815 25.4859V26.358C32.4828 26.4178 32.5066 26.4747 32.548 26.5171C32.5894 26.5594 32.6452 26.5839 32.7039 26.5855H36.6234V35.6749C36.6249 35.7337 36.6485 35.7897 36.6893 35.8315C36.7301 35.8732 36.785 35.8975 36.8428 35.8993H37.9379C37.9984 35.9009 38.0571 35.8784 38.1013 35.8364C38.1456 35.7944 38.1718 35.7364 38.1745 35.6749V26.5855H42.0929C42.1514 26.5834 42.207 26.5588 42.2483 26.5165C42.2896 26.4743 42.3136 26.4176 42.3153 26.358V25.4859C42.3162 25.4243 42.2935 25.3647 42.2519 25.3197C42.2104 25.2748 42.1534 25.248 42.0929 25.2451Z" fill="#35291E"/>
<path d="M44.6835 32.1528L46.7016 26.9451L48.7207 32.1528H44.6835ZM51.4776 35.6759L47.531 25.4695C47.5035 25.3981 47.454 25.3376 47.39 25.2972C47.3259 25.2567 47.2508 25.2385 47.1757 25.2451H46.2285C46.1539 25.2382 46.0792 25.2564 46.0157 25.297C45.9522 25.3375 45.9036 25.3981 45.8773 25.4695L41.9286 35.6759C41.8843 35.8132 41.985 35.9003 42.1058 35.9003H42.9935C43.2009 35.9003 43.2572 35.8255 43.3337 35.6471L44.1651 33.4952H49.2391L50.0705 35.6471C50.147 35.8255 50.2064 35.9003 50.4137 35.9003H51.3015C51.3295 35.9038 51.358 35.8999 51.3841 35.889C51.4102 35.8781 51.4332 35.8605 51.4508 35.838C51.4684 35.8155 51.48 35.7887 51.4845 35.7604C51.489 35.732 51.4873 35.7029 51.4776 35.6759Z" fill="#35291E"/>
<path d="M71.1194 32.153L73.1325 26.9453L75.1546 32.153H71.1194ZM77.9135 35.676L73.9669 25.4697C73.9394 25.3982 73.8899 25.3378 73.8259 25.2973C73.7618 25.2569 73.6867 25.2386 73.6116 25.2452H72.6614C72.5868 25.2391 72.5122 25.2577 72.4488 25.2981C72.3853 25.3385 72.3364 25.3987 72.3091 25.4697L68.3605 35.676C68.3519 35.7035 68.3503 35.7328 68.3556 35.7611C68.361 35.7895 68.3732 35.816 68.3912 35.8383C68.4092 35.8606 68.4324 35.878 68.4587 35.8888C68.485 35.8997 68.5135 35.9036 68.5416 35.9004H69.4294C69.6307 35.9004 69.6961 35.8256 69.7696 35.6473L70.601 33.4954H75.675L76.5094 35.6473C76.5839 35.8256 76.6433 35.9004 76.8466 35.9004H77.7344C77.8531 35.9004 77.9588 35.8133 77.9115 35.676" fill="#35291E"/>
<path d="M61.3688 34.562H55.5731V25.486C55.5733 25.4541 55.5672 25.4224 55.5551 25.3929C55.5431 25.3635 55.5254 25.3367 55.5031 25.3143C55.4808 25.2919 55.4543 25.2742 55.4252 25.2623C55.3961 25.2505 55.365 25.2446 55.3336 25.2452H54.2264C54.1658 25.2476 54.1086 25.2742 54.0671 25.3193C54.0257 25.3643 54.0033 25.4243 54.005 25.486V35.6749C54.0065 35.7341 54.0304 35.7904 54.0716 35.8322C54.1128 35.874 54.1682 35.898 54.2264 35.8993H61.3728C61.4331 35.9005 61.4915 35.8777 61.5356 35.8358C61.5798 35.7939 61.6062 35.7362 61.6093 35.6749V34.8039C61.6088 34.7404 61.5836 34.6798 61.5393 34.6353C61.495 34.5907 61.4351 34.5659 61.3728 34.5661" fill="#35291E"/>
<path d="M71.1286 18.3692C71.0479 18.3703 70.9678 18.3549 70.893 18.3239C70.8181 18.2929 70.7502 18.2469 70.6931 18.1887C70.6361 18.1306 70.5911 18.0613 70.5607 17.9851C70.5304 17.9089 70.5155 17.8273 70.5167 17.7451V16.5246C70.5167 16.2746 70.5902 16.127 71.0552 15.5286L80.6012 3.06578H71.5202C71.365 3.06312 71.217 2.99906 71.1074 2.88715C70.9979 2.77524 70.9354 2.62429 70.9334 2.46632V1.34626C70.9309 1.18458 70.9911 1.02845 71.101 0.91164C71.2108 0.794835 71.3614 0.726786 71.5202 0.722224H83.6147C83.6955 0.721118 83.7756 0.736491 83.8504 0.767475C83.9252 0.798458 83.9932 0.844418 84.0502 0.902603C84.1073 0.960788 84.1523 1.03004 84.1826 1.10625C84.2129 1.18246 84.2279 1.26405 84.2267 1.34626V2.31874C84.2267 2.56673 84.1532 2.71635 83.6882 3.3148L73.9439 16.0266H83.6147C83.6954 16.0255 83.7754 16.0409 83.8502 16.0718C83.9249 16.1027 83.9928 16.1486 84.0498 16.2066C84.1069 16.2647 84.1519 16.3338 84.1823 16.4099C84.2127 16.486 84.2278 16.5675 84.2267 16.6496V17.7697C84.2227 17.9315 84.1562 18.0852 84.0417 18.1974C83.9271 18.3096 83.7737 18.3714 83.6147 18.3692H71.1286Z" fill="#35291E"/>
<path d="M87.7537 18.3692C87.6728 18.3704 87.5926 18.3551 87.5177 18.3242C87.4427 18.2933 87.3747 18.2473 87.3175 18.1891C87.2603 18.1309 87.2152 18.0616 87.1849 17.9854C87.1545 17.9091 87.1395 17.8274 87.1407 17.7451V16.5246C87.1407 16.2746 87.2142 16.127 87.6762 15.5286L97.2282 3.06578H88.1422C87.9876 3.06136 87.8405 2.99674 87.7314 2.88521C87.6222 2.77367 87.5592 2.62373 87.5554 2.46632V1.34626C87.5529 1.18458 87.6132 1.02845 87.723 0.91164C87.8328 0.794835 87.9834 0.726786 88.1422 0.722224H100.237C100.317 0.721118 100.398 0.736491 100.472 0.767475C100.547 0.798458 100.615 0.844418 100.672 0.902603C100.729 0.960788 100.774 1.03004 100.805 1.10625C100.835 1.18246 100.85 1.26405 100.849 1.34626V2.31874C100.849 2.56673 100.775 2.71635 100.31 3.3148L90.5659 16.0266H100.237C100.317 16.0255 100.397 16.0409 100.472 16.0718C100.547 16.1027 100.615 16.1486 100.672 16.2066C100.729 16.2647 100.774 16.3338 100.804 16.4099C100.835 16.486 100.85 16.5675 100.849 16.6497V17.7697C100.845 17.9315 100.778 18.0852 100.664 18.1974C100.549 18.3096 100.396 18.3714 100.237 18.3692H87.7537Z" fill="#35291E"/>
<path d="M104.498 1.34626C104.496 1.18475 104.556 1.02876 104.665 0.911984C104.775 0.795207 104.925 0.72705 105.084 0.722224H106.795C106.876 0.721118 106.956 0.736491 107.031 0.767475C107.106 0.798458 107.173 0.844418 107.231 0.902603C107.288 0.960788 107.333 1.03004 107.363 1.10625C107.393 1.18246 107.408 1.26405 107.407 1.34626V17.742C107.408 17.8242 107.393 17.9058 107.363 17.982C107.333 18.0583 107.288 18.1275 107.231 18.1857C107.173 18.2439 107.106 18.2898 107.031 18.3208C106.956 18.3518 106.876 18.3672 106.795 18.3661H105.084C104.925 18.3612 104.775 18.2931 104.665 18.1763C104.556 18.0595 104.496 17.9035 104.498 17.742V1.34626Z" fill="#35291E"/>
<path d="M53.2793 1.32399C53.2817 1.16576 53.3447 1.01471 53.4548 0.903095C53.565 0.791485 53.7137 0.728148 53.8691 0.726562H55.6064C55.7617 0.728413 55.9101 0.791888 56.0201 0.90347C56.13 1.01505 56.1929 1.16594 56.1952 1.32399V12.4403C56.2517 13.4886 56.7004 14.475 57.4493 15.1968C58.1981 15.9185 59.1902 16.3208 60.2214 16.3208C61.2526 16.3208 62.2446 15.9185 62.9935 15.1968C63.7423 14.475 64.1911 13.4886 64.2475 12.4403V1.32399C64.2501 1.16549 64.3135 1.0143 64.424 0.902689C64.5346 0.791077 64.6837 0.727877 64.8394 0.726562H66.5746C66.73 0.727897 66.8786 0.791218 66.9885 0.902939C67.0984 1.01466 67.1609 1.16587 67.1624 1.32399V12.4403C67.0229 14.217 66.2312 15.875 64.9448 17.084C63.6585 18.2931 61.9721 18.9645 60.2214 18.9645C58.4707 18.9645 56.7842 18.2931 55.4979 17.084C54.2116 15.875 53.4198 14.217 53.2803 12.4403V1.32399H53.2793Z" fill="#35291E"/>
<path d="M26.4235 0.0993863C30.2916 0.0993863 33.427 2.99116 33.427 6.62897V17.7699C33.4251 17.9279 33.3628 18.079 33.2532 18.191C33.1436 18.303 32.9954 18.3669 32.8402 18.3693H31.0999C30.9444 18.367 30.796 18.303 30.6861 18.1911C30.5762 18.0792 30.5134 17.9281 30.511 17.7699V11.9894H22.4587V17.7699C22.4548 17.9315 22.3885 18.085 22.2741 18.1972C22.1598 18.3094 22.0066 18.3713 21.8478 18.3693H20.1367C19.9811 18.3675 19.8324 18.3037 19.7223 18.1917C19.6123 18.0797 19.5497 17.9283 19.5479 17.7699V6.62897C19.6194 4.83775 20.3819 3.14754 21.6699 1.9251C22.9579 0.702661 24.6674 0.046646 26.4275 0.0993863M30.5151 6.62897C30.4957 6.10218 30.3747 5.58443 30.1588 5.10528C29.9429 4.62613 29.6364 4.19499 29.2568 3.83644C28.8773 3.47788 28.432 3.19896 27.9466 3.0156C27.4611 2.83224 26.945 2.74802 26.4275 2.76776C25.3999 2.74901 24.4066 3.14419 23.6637 3.8673C22.9208 4.59042 22.4885 5.58297 22.4608 6.62897V9.64475H30.513V6.62897H30.5151Z" fill="#35291E"/>
<path d="M49.3407 0.722412C49.6839 0.722412 49.9033 0.927343 49.9033 1.12204V2.4665C49.9095 2.54455 49.8993 2.62305 49.8736 2.69683C49.8478 2.7706 49.8071 2.83798 49.7539 2.89459C49.7008 2.9512 49.6365 2.99575 49.5653 3.02528C49.4941 3.05481 49.4175 3.06867 49.3407 3.06596H44.2969V17.7688C44.2951 17.9267 44.2329 18.0777 44.1235 18.1896C44.0141 18.3015 43.8662 18.3657 43.7111 18.3683H41.9708C41.8156 18.3657 41.6676 18.3016 41.5581 18.1897C41.4485 18.0778 41.3861 17.9268 41.384 17.7688V3.06596H36.3876C36.2326 3.06305 36.0848 2.99887 35.9754 2.88699C35.8661 2.77511 35.8038 2.62431 35.8018 2.4665V1.32394C35.8038 1.16633 35.8662 1.01575 35.9756 0.904198C36.085 0.792645 36.2328 0.728895 36.3876 0.726509L49.3407 0.722412Z" fill="#35291E"/>
<path d="M0.593654 0.722481C0.43867 0.724603 0.290616 0.788214 0.181017 0.899796C0.0714171 1.01138 0.00892003 1.16212 0.00683594 1.31991V17.7699C0.00865405 17.928 0.0710016 18.0791 0.180602 18.191C0.290203 18.303 0.438407 18.367 0.593654 18.3694H2.3108C2.46943 18.3711 2.62232 18.3091 2.73646 18.197C2.85059 18.0848 2.9168 17.9314 2.92076 17.7699V5.28356L12.1275 17.6695C12.264 17.8974 12.459 18.0831 12.6916 18.2062C12.9242 18.3294 13.1855 18.3855 13.4471 18.3684H15.0394C15.195 18.3665 15.3437 18.3027 15.4538 18.1907C15.5638 18.0787 15.6264 17.9273 15.6283 17.7689V1.32401C15.6259 1.16595 15.5631 1.01507 15.4531 0.903486C15.3431 0.791904 15.1947 0.728429 15.0394 0.726578H13.3022C13.147 0.728179 12.9987 0.791637 12.889 0.903329C12.7793 1.01502 12.7169 1.16606 12.7154 1.32401V13.962L3.267 1.42545C3.13371 1.1932 2.93835 1.00427 2.70365 0.88072C2.46896 0.757168 2.2046 0.70408 1.94139 0.72761L0.593654 0.722481Z" fill="#35291E"/>
</svg>
