<svg width="160" height="36" viewBox="0 0 160 36" fill="none" xmlns="http://www.w3.org/2000/svg">
<path d="M0 32.875V3.125H29.858V10.9606H26.1235V6.95081H3.90092V29.0556H26.0275V23.9797L18.7245 20.3824L20.4575 16.95L29.8901 21.5816V32.875H0Z" fill="#35291E"/>
<path d="M46.9292 8.72504H53.6632V15.375H51.5182V13.31C51.2252 13.9867 50.7094 14.535 49.9709 14.955C49.2441 15.375 48.3768 15.585 47.3687 15.585C45.634 15.585 44.1804 14.99 43.0083 13.8C41.8362 12.5984 41.25 11.0875 41.25 9.26754C41.25 7.43588 41.8478 5.91922 43.0434 4.71754C44.2507 3.51588 45.7747 2.91504 47.6149 2.91504C49.0683 2.91504 50.3285 3.31172 51.3951 4.10504C52.4736 4.88672 53.1944 5.91338 53.5577 7.18504H50.8676C50.5746 6.59004 50.1408 6.12922 49.5665 5.80254C49.0039 5.46422 48.3474 5.29504 47.5973 5.29504C46.4604 5.29504 45.5401 5.66838 44.8368 6.41504C44.1335 7.16172 43.7819 8.12422 43.7819 9.30254C43.7819 10.4459 44.116 11.3967 44.7841 12.155C45.4639 12.9017 46.39 13.275 47.5621 13.275C48.4177 13.275 49.1621 13.0592 49.7951 12.6275C50.4281 12.1959 50.85 11.595 51.061 10.825H46.9292V8.72504ZM64.5157 5.50504H58.7663V7.97254H64.041V10.3525H58.7663V12.995H64.5157V15.375H56.252V3.12504H64.5157V5.50504ZM67.821 4.73504C69.0518 3.52172 70.5758 2.91504 72.3925 2.91504C74.2094 2.91504 75.7331 3.52172 76.9639 4.73504C78.1946 5.94838 78.81 7.45338 78.81 9.25004C78.81 11.0467 78.1946 12.5517 76.9639 13.765C75.7331 14.9784 74.2094 15.585 72.3925 15.585C70.5758 15.585 69.0518 14.9784 67.821 13.765C66.6021 12.5517 65.9924 11.0467 65.9924 9.25004C65.9924 7.45338 66.6021 5.94838 67.821 4.73504ZM75.1529 6.41504C74.4263 5.66838 73.5061 5.29504 72.3925 5.29504C71.279 5.29504 70.3529 5.66838 69.6144 6.41504C68.8878 7.16172 68.5243 8.10672 68.5243 9.25004C68.5243 10.3934 68.8878 11.3384 69.6144 12.085C70.3529 12.8317 71.279 13.205 72.3925 13.205C73.5061 13.205 74.4263 12.8317 75.1529 12.085C75.8914 11.3384 76.2606 10.3934 76.2606 9.25004C76.2606 8.10672 75.8914 7.16172 75.1529 6.41504ZM90.0509 3.12504H92.952V15.375H90.4377V6.59004L87.0089 11.7525H86.7804L83.3694 6.59004V15.375H80.8551V3.12504H83.7386L86.9034 7.83254L90.0509 3.12504ZM103.87 5.50504H98.1204V7.97254H103.395V10.3525H98.1204V12.995H103.87V15.375H95.6061V3.12504H103.87V5.50504ZM114.63 3.12504V5.50504H111.079V15.375H108.564V5.50504H105.03V3.12504H114.63ZM123.537 15.375L120.354 10.965H118.965V15.375H116.451V3.12504H121.743C123.057 3.12504 124.082 3.48672 124.82 4.21004C125.571 4.92172 125.945 5.89004 125.945 7.11504C125.945 8.09504 125.705 8.89422 125.225 9.51254C124.745 10.1309 124.064 10.5509 123.185 10.7725L126.631 15.375H123.537ZM118.965 5.50504V8.77754H121.462C122.107 8.77754 122.587 8.63754 122.904 8.35754C123.232 8.06588 123.396 7.66338 123.396 7.15004C123.396 6.63672 123.232 6.23422 122.904 5.94254C122.576 5.65088 122.095 5.50504 121.462 5.50504H118.965ZM128.162 15.375V3.12504H130.676V15.375H128.162ZM140.943 3.12504H143.493V10.4225C143.493 12.0909 143.023 13.3684 142.086 14.255C141.148 15.1417 139.923 15.585 138.411 15.585C136.899 15.585 135.674 15.1417 134.737 14.255C133.799 13.3684 133.33 12.0909 133.33 10.4225V3.12504H135.879V10.2825C135.879 12.2309 136.723 13.205 138.411 13.205C140.099 13.205 140.943 12.2309 140.943 10.2825V3.12504ZM155.178 3.12504H158.079V15.375H155.565V6.59004L152.136 11.7525H151.908L148.497 6.59004V15.375H145.982V3.12504H148.866L152.031 7.83254L155.178 3.12504ZM46.1907 25.4025C47.0933 25.5891 47.8199 25.7759 48.3709 25.9625C48.9219 26.1491 49.4259 26.3884 49.883 26.68C50.3401 26.96 50.6626 27.31 50.85 27.73C51.0494 28.15 51.1489 28.6575 51.1489 29.2525C51.1489 29.9291 51.0023 30.53 50.7094 31.055C50.4281 31.5684 50.0472 31.965 49.5665 32.245C49.0977 32.525 48.5995 32.735 48.072 32.875C47.5562 33.015 47.023 33.085 46.472 33.085C44.7957 33.085 43.5182 32.6941 42.639 31.9125C41.7716 31.1191 41.2617 30.1275 41.1094 28.9375H43.6412C43.8171 29.5675 44.116 30.0284 44.5379 30.32C44.9716 30.6116 45.6105 30.7575 46.4544 30.7575C47.1577 30.7575 47.6911 30.635 48.0544 30.39C48.4296 30.145 48.6171 29.8009 48.6171 29.3575C48.6171 29.0775 48.5116 28.8559 48.3006 28.6925C48.1012 28.5175 47.8551 28.3891 47.5621 28.3075C47.2692 28.2259 46.7474 28.1034 45.9973 27.94C45.9386 27.9284 45.8918 27.9225 45.8566 27.9225C45.8331 27.9109 45.7922 27.8991 45.7335 27.8875C45.6867 27.8759 45.6397 27.8641 45.5929 27.8525C44.9599 27.7241 44.4265 27.5841 43.9929 27.4325C43.5593 27.2809 43.1314 27.0709 42.7094 26.8025C42.2874 26.5341 41.965 26.19 41.7423 25.77C41.5314 25.35 41.4259 24.8484 41.4259 24.265C41.4259 23.0516 41.883 22.1067 42.7973 21.43C43.7116 20.7534 44.8017 20.415 46.0676 20.415C47.6149 20.415 48.787 20.7709 49.5841 21.4825C50.3929 22.1825 50.8735 23.0925 51.0259 24.2125H48.4764C48.1716 23.2325 47.3746 22.7425 46.0852 22.7425C45.3703 22.7425 44.8368 22.8766 44.4852 23.145C44.1336 23.4016 43.9577 23.74 43.9577 24.16C43.9577 24.4984 44.1043 24.7434 44.3973 24.895C44.7021 25.0466 45.2999 25.2159 46.1907 25.4025ZM61.8316 20.625V23.005H58.2799V32.875H55.7656V23.005H52.2316V20.625H61.8316ZM71.2656 20.625H73.8151V27.9225C73.8151 29.5909 73.3463 30.8684 72.4085 31.755C71.4707 32.6416 70.2459 33.085 68.7338 33.085C67.2217 33.085 65.9968 32.6416 65.059 31.755C64.1212 30.8684 63.6524 29.5909 63.6524 27.9225V20.625H66.2019V27.7825C66.2019 29.7309 67.0459 30.705 68.7338 30.705C70.4217 30.705 71.2656 29.7309 71.2656 27.7825V20.625ZM80.8412 20.625C82.6347 20.625 84.1292 21.2084 85.3248 22.375C86.532 23.5416 87.1358 25 87.1358 26.75C87.1358 28.5 86.532 29.9584 85.3248 31.125C84.1292 32.2916 82.6347 32.875 80.8412 32.875H76.3929V20.625H80.8412ZM80.8412 30.495C81.9549 30.495 82.8632 30.145 83.5665 29.445C84.2698 28.745 84.6215 27.8466 84.6215 26.75C84.6215 25.6534 84.2698 24.755 83.5665 24.055C82.8632 23.355 81.9549 23.005 80.8412 23.005H78.9072V30.495H80.8412ZM89.2878 32.875V20.625H91.8021V32.875H89.2878ZM95.7573 22.235C96.9881 21.0217 98.5116 20.415 100.329 20.415C102.146 20.415 103.669 21.0217 104.9 22.235C106.131 23.4484 106.746 24.9534 106.746 26.75C106.746 28.5466 106.131 30.0516 104.9 31.265C103.669 32.4784 102.146 33.085 100.329 33.085C98.5116 33.085 96.9881 32.4784 95.7573 31.265C94.5379 30.0516 93.9287 28.5466 93.9287 26.75C93.9287 24.9534 94.5379 23.4484 95.7573 22.235ZM103.089 23.915C102.362 23.1684 101.443 22.795 100.329 22.795C99.2149 22.795 98.2892 23.1684 97.5507 23.915C96.8237 24.6616 96.4606 25.6066 96.4606 26.75C96.4606 27.8934 96.8237 28.8384 97.5507 29.585C98.2892 30.3316 99.2149 30.705 100.329 30.705C101.443 30.705 102.362 30.3316 103.089 29.585C103.828 28.8384 104.197 27.8934 104.197 26.75C104.197 25.6066 103.828 24.6616 103.089 23.915Z" fill="#35291E"/>
</svg>
